<svg width="28" height="25" viewBox="0 0 28 25" fill="none" xmlns="http://www.w3.org/2000/svg">
<path d="M14 0C14 0 5.3396 7.41667 0.4998 11.4333C0.345796 11.5665 0.221718 11.7302 0.135616 11.914C0.0495132 12.0977 0.00330906 12.2974 0 12.5C0 12.8684 0.1475 13.2216 0.41005 13.4821C0.672601 13.7426 1.0287 13.8889 1.4 13.8889H4.2V23.6111C4.2 23.9795 4.3475 24.3327 4.61005 24.5932C4.8726 24.8537 5.2287 25 5.6 25H9.8C10.1713 25 10.5274 24.8537 10.7899 24.5932C11.0525 24.3327 11.2 23.9795 11.2 23.6111V18.0556H16.8V23.6111C16.8 23.9795 16.9475 24.3327 17.2101 24.5932C17.4726 24.8537 17.8287 25 18.2 25H22.4C22.7713 25 23.1274 24.8537 23.3899 24.5932C23.6525 24.3327 23.8 23.9795 23.8 23.6111V13.8889H26.6C26.9713 13.8889 27.3274 13.7426 27.59 13.4821C27.8525 13.2216 28 12.8684 28 12.5C27.998 12.2935 27.9488 12.0901 27.8559 11.9053C27.763 11.7205 27.6289 11.5591 27.4638 11.4333C22.6576 7.41667 14 0 14 0Z" fill="#F79C13"/>
</svg>
