<svg width="32" height="32" viewBox="0 0 32 32" fill="none" xmlns="http://www.w3.org/2000/svg">
<path d="M16.9379 17.7501L13.2962 21.3759C13.1478 21.5231 13.0301 21.6982 12.9497 21.8912C12.8693 22.0841 12.8279 22.2911 12.8279 22.5001C12.8279 22.7091 12.8693 22.916 12.9497 23.109C13.0301 23.3019 13.1478 23.477 13.2962 23.6242C13.4434 23.7726 13.6186 23.8904 13.8115 23.9708C14.0044 24.0512 14.2114 24.0926 14.4204 24.0926C14.6294 24.0926 14.8364 24.0512 15.0293 23.9708C15.2223 23.8904 15.3974 23.7726 15.5446 23.6242L21.8779 17.2909C22.0221 17.1403 22.1351 16.9628 22.2104 16.7684C22.3688 16.3829 22.3688 15.9506 22.2104 15.5651C22.1351 15.3707 22.0221 15.1932 21.8779 15.0426L15.5446 8.70924C15.3969 8.56161 15.2217 8.44451 15.0288 8.36462C14.8359 8.28472 14.6292 8.2436 14.4204 8.2436C14.2116 8.2436 14.0049 8.28472 13.812 8.36462C13.6191 8.44451 13.4439 8.56161 13.2962 8.70924C13.1486 8.85687 13.0315 9.03213 12.9516 9.22501C12.8717 9.4179 12.8306 9.62463 12.8306 9.83341C12.8306 10.0422 12.8717 10.2489 12.9516 10.4418C13.0315 10.6347 13.1486 10.8099 13.2962 10.9576L16.9379 14.5834H1.75374C1.33382 14.5834 0.93109 14.7502 0.634158 15.0472C0.337225 15.3441 0.17041 15.7468 0.17041 16.1667C0.17041 16.5867 0.337225 16.9894 0.634158 17.2863C0.93109 17.5833 1.33382 17.7501 1.75374 17.7501H16.9379ZM16.0037 0.33341C13.0446 0.320199 10.141 1.1365 7.62232 2.68971C5.10359 4.24293 3.07053 6.4709 1.75374 9.12091C1.56478 9.49884 1.53368 9.93636 1.6673 10.3372C1.80092 10.7381 2.08831 11.0694 2.46624 11.2584C2.84418 11.4474 3.2817 11.4785 3.68256 11.3449C4.08342 11.2112 4.41478 10.9238 4.60374 10.5459C5.60471 8.5245 7.12731 6.80706 9.0142 5.57106C10.9011 4.33506 13.0838 3.62535 15.3368 3.51526C17.5898 3.40518 19.8313 3.89872 21.8296 4.94488C23.828 5.99105 25.5108 7.55187 26.7041 9.46607C27.8974 11.3803 28.5578 13.5784 28.6172 15.8333C28.6766 18.0882 28.1328 20.318 27.042 22.2924C25.9512 24.2667 24.3529 25.914 22.4123 27.0639C20.4718 28.2138 18.2594 28.8247 16.0037 28.8334C13.6428 28.8436 11.3268 28.188 9.32159 26.9417C7.31636 25.6954 5.70314 23.9091 4.66708 21.7876C4.47811 21.4096 4.14675 21.1223 3.74589 20.9886C3.34503 20.855 2.90751 20.8861 2.52958 21.0751C2.15164 21.264 1.86426 21.5954 1.73064 21.9963C1.59702 22.3971 1.62811 22.8346 1.81708 23.2126C3.07239 25.7388 4.97982 27.8838 7.34207 29.4256C9.70433 30.9675 12.4356 31.8503 15.2534 31.9826C18.0713 32.115 20.8733 31.4921 23.3696 30.1785C25.866 28.8648 27.9661 26.9081 29.4527 24.5106C30.9393 22.1132 31.7583 19.3621 31.8252 16.542C31.8921 13.7219 31.2043 10.9351 29.833 8.46989C28.4617 6.00471 26.4567 3.95064 24.0253 2.52016C21.594 1.08968 18.8247 0.334734 16.0037 0.33341Z" fill="#2D2D2D"/>
</svg>
