<svg width="24" height="25" viewBox="0 0 24 25" fill="none" xmlns="http://www.w3.org/2000/svg">
<path d="M21.21 16.3901C20.5739 17.8946 19.5788 19.2203 18.3119 20.2514C17.045 21.2825 15.5448 21.9875 13.9425 22.3049C12.3401 22.6222 10.6845 22.5422 9.12018 22.0719C7.55591 21.6015 6.13066 20.7551 4.96906 19.6067C3.80745 18.4583 2.94485 17.0428 2.45667 15.484C1.96849 13.9252 1.8696 12.2706 2.16863 10.6647C2.46767 9.05886 3.15553 7.55071 4.17208 6.27211C5.18863 4.99351 6.50292 3.9834 8.00004 3.33008" stroke="#2D2D2D" stroke-width="2" stroke-linecap="round" stroke-linejoin="round"/>
<path d="M22 12.5C22 11.1868 21.7413 9.88642 21.2388 8.67317C20.7362 7.45991 19.9997 6.35752 19.0711 5.42893C18.1425 4.50035 17.0401 3.76375 15.8268 3.2612C14.6136 2.75866 13.3132 2.5 12 2.5V12.5H22Z" stroke="#2D2D2D" stroke-width="2" stroke-linecap="round" stroke-linejoin="round"/>
</svg>
