<svg width="24" height="25" viewBox="0 0 24 25" fill="none" xmlns="http://www.w3.org/2000/svg">
<path d="M4 3.5H20C20.5304 3.5 21.0391 3.71071 21.4142 4.08579C21.7893 4.46086 22 4.96957 22 5.5V11.5C22 14.1522 20.9464 16.6957 19.0711 18.5711C17.1957 20.4464 14.6522 21.5 12 21.5C10.6868 21.5 9.38642 21.2413 8.17317 20.7388C6.95991 20.2362 5.85752 19.4997 4.92893 18.5711C3.05357 16.6957 2 14.1522 2 11.5V5.5C2 4.96957 2.21071 4.46086 2.58579 4.08579C2.96086 3.71071 3.46957 3.5 4 3.5Z" stroke="#2D2D2D" stroke-width="2" stroke-linecap="round" stroke-linejoin="round"/>
<path d="M8 10.5L12 14.5L16 10.5" stroke="#2D2D2D" stroke-width="2" stroke-linecap="round" stroke-linejoin="round"/>
</svg>
